<svg xmlns="http://www.w3.org/2000/svg" width="1040" height="124" viewBox="0 0 1040 124" role="img" aria-labelledby="title description">
  <title id="title">Tobacco Road Games</title>
  <desc id="description">Independent Games. Open Shelves.</desc>
  <rect width="1040" height="124" fill="#25180f"/>
  <rect x="8" y="8" width="1024" height="108" rx="6" fill="none" stroke="#b99449" stroke-width="2"/>
  <path d="M20 20h154v8H28v76h146M1020 20H866v8h146v76H866" fill="none" stroke="#486044" stroke-width="5"/>
  <g transform="translate(225 27)" fill="none" stroke="#d5b46a" stroke-width="3">
    <path d="M4 8c16 0 29 4 39 13v48C33 61 20 57 4 57zM82 8c-16 0-29 4-39 13v48c10-8 23-12 39-12z"/>
    <path d="M43 21v48"/>
  </g>
  <text x="570" y="54" fill="#f0e2bd" font-family="Georgia, 'Times New Roman', serif" font-size="42" font-weight="700" text-anchor="middle">Tobacco Road Games</text>
  <text x="570" y="88" fill="#c9a75c" font-family="Georgia, 'Times New Roman', serif" font-size="22" font-style="italic" text-anchor="middle">Independent Games. Open Shelves.</text>
</svg>
